<svg width="64" height="65" viewBox="0 0 64 65" fill="none" xmlns="http://www.w3.org/2000/svg">
<path d="M20 50.3489C24.4183 50.3489 28 46.7672 28 42.3489C28 37.9306 24.4183 34.3489 20 34.3489C15.5817 34.3489 12 37.9306 12 42.3489C12 46.7672 15.5817 50.3489 20 50.3489Z" stroke="#3139FB" stroke-width="3" stroke-linecap="round" stroke-linejoin="round"/>
<path d="M20 24.3489C24.4183 24.3489 28 20.7672 28 16.3489C28 11.9306 24.4183 8.34888 20 8.34888C15.5817 8.34888 12 11.9306 12 16.3489C12 20.7672 15.5817 24.3489 20 24.3489Z" stroke="#3139FB" stroke-width="3" stroke-linecap="round" stroke-linejoin="round"/>
<path d="M44 50.3489C48.4183 50.3489 52 46.7672 52 42.3489C52 37.9306 48.4183 34.3489 44 34.3489C39.5817 34.3489 36 37.9306 36 42.3489C36 46.7672 39.5817 50.3489 44 50.3489Z" stroke="#3139FB" stroke-width="3" stroke-linecap="round" stroke-linejoin="round"/>
<path d="M8 56.3489C9.39721 54.4859 11.209 52.9739 13.2918 51.9325C15.3746 50.8911 17.6713 50.3489 20 50.3489C22.3287 50.3489 24.6254 50.8911 26.7082 51.9325C28.791 52.9739 30.6028 54.4859 32 56.3489C33.3972 54.4859 35.209 52.9739 37.2918 51.9325C39.3746 50.8911 41.6713 50.3489 44 50.3489C46.3287 50.3489 48.6254 50.8911 50.7082 51.9325C52.791 52.9739 54.6028 54.4859 56 56.3489" stroke="#3139FB" stroke-width="3" stroke-linecap="round" stroke-linejoin="round"/>
<path d="M44 24.3489C48.4183 24.3489 52 20.7672 52 16.3489C52 11.9306 48.4183 8.34888 44 8.34888C39.5817 8.34888 36 11.9306 36 16.3489C36 20.7672 39.5817 24.3489 44 24.3489Z" stroke="#3139FB" stroke-width="3" stroke-linecap="round" stroke-linejoin="round"/>
<path d="M8 30.3489C9.39721 28.4859 11.209 26.9739 13.2918 25.9325C15.3746 24.8911 17.6713 24.3489 20 24.3489C22.3287 24.3489 24.6254 24.8911 26.7082 25.9325C28.791 26.9739 30.6028 28.4859 32 30.3489C33.3972 28.4859 35.209 26.9739 37.2918 25.9325C39.3746 24.8911 41.6713 24.3489 44 24.3489C46.3287 24.3489 48.6254 24.8911 50.7082 25.9325C52.791 26.9739 54.6028 28.4859 56 30.3489" stroke="#3139FB" stroke-width="3" stroke-linecap="round" stroke-linejoin="round"/>
</svg>
